<?xml version="1.0" standalone="no"?>
<!DOCTYPE svg PUBLIC "-//W3C//DTD SVG 20010904//EN"
 "http://www.w3.org/TR/2001/REC-SVG-20010904/DTD/svg10.dtd">
<svg version="1.0" xmlns="http://www.w3.org/2000/svg"
 width="201.000000pt" height="201.000000pt" viewBox="0 0 201.000000 201.000000"
 preserveAspectRatio="xMidYMid meet">
<metadata>
Created by potrace 1.14, written by Peter Selinger 2001-2017
</metadata>
<g transform="translate(0.000000,201.000000) scale(0.100000,-0.100000)"
fill="#000000" stroke="none">
<path d="M1660 1972 c0 -24 5 -31 26 -36 31 -8 42 0 46 34 3 22 -1 25 -34 28
-36 3 -38 2 -38 -26z"/>
<path d="M1541 1969 l-33 -20 22 -24 c19 -20 26 -22 47 -12 20 9 23 16 18 36
-10 39 -18 42 -54 20z"/>
<path d="M1239 1938 c5 -26 12 -34 33 -36 19 -2 27 2 32 20 11 43 7 48 -33 48
-38 0 -38 0 -32 -32z"/>
<path d="M1792 1923 c-21 -30 -21 -30 -2 -48 17 -15 24 -16 45 -7 31 14 31 24
2 58 l-24 27 -21 -30z"/>
<path d="M1130 1903 c-20 -26 -20 -28 -4 -40 24 -18 44 -16 59 4 10 14 10 21
-2 40 -20 30 -27 29 -53 -4z"/>
<path d="M1361 1896 c-20 -21 -21 -26 -9 -45 7 -12 19 -19 26 -16 8 3 20 5 28
5 19 0 17 30 -4 58 l-18 23 -23 -25z"/>
<path d="M973 1830 c-35 -21 -48 -53 -41 -100 7 -45 -47 -100 -97 -100 -29 0
-38 5 -42 20 -5 20 -12 20 -382 18 l-376 -3 -3 -828 -2 -827 962 2 963 3 0
825 0 825 -382 3 c-378 2 -383 2 -383 -18 0 -18 -7 -20 -54 -20 -30 0 -58 5
-61 10 -4 6 7 26 24 46 46 52 38 119 -18 149 -40 20 -69 19 -108 -5z m-423
-325 l0 -95 -95 0 -95 0 0 95 0 95 95 0 95 0 0 -95z m1080 0 l0 -95 -100 0
-100 0 0 95 0 95 100 0 100 0 0 -95z m0 -665 l0 -500 -635 0 -635 0 0 500 0
500 635 0 635 0 0 -500z m260 395 l0 -95 -95 0 -95 0 0 95 0 95 95 0 95 0 0
-95z m-1600 -265 l0 -100 -100 0 -100 0 0 100 0 100 100 0 100 0 0 -100z
m1600 0 l0 -100 -95 0 -95 0 0 100 0 100 95 0 95 0 0 -100z m-1600 -265 l0
-95 -100 0 -100 0 0 95 0 95 100 0 100 0 0 -95z m1600 -265 l0 -100 -95 0 -95
0 0 100 0 100 95 0 95 0 0 -100z m-1070 -270 l0 -100 -95 0 -95 0 0 100 0 100
95 0 95 0 0 -100z m270 5 l0 -95 -95 0 -95 0 0 95 0 95 95 0 95 0 0 -95z m530
0 l0 -95 -95 0 -95 0 0 95 0 95 95 0 95 0 0 -95z"/>
<path d="M1030 1251 c-15 -29 -13 -273 3 -294 11 -16 36 -17 267 -15 l255 3 0
160 0 160 -257 3 c-246 2 -258 2 -268 -17z"/>
<path d="M508 899 c-12 -7 -18 -22 -18 -49 0 -33 -3 -40 -19 -40 -44 0 -51
-23 -51 -166 0 -75 5 -144 10 -155 10 -18 24 -19 258 -19 180 0 251 3 260 12
7 7 12 29 12 50 0 34 3 38 25 38 14 0 29 8 35 19 5 11 10 80 10 155 0 109 -3
138 -16 150 -13 14 -50 16 -252 16 -142 0 -244 -5 -254 -11z m452 -91 c0 -17
-3 -19 -12 -10 -8 8 -67 12 -200 12 -119 0 -188 4 -188 10 0 6 73 10 200 10
199 0 200 0 200 -22z"/>
<path d="M1272 818 c-5 -7 -24 -41 -42 -76 -23 -45 -29 -66 -22 -75 6 -7 40
-28 76 -47 51 -28 69 -33 83 -24 20 13 83 122 83 146 0 10 -25 30 -65 52 -70
38 -96 44 -113 24z m73 -80 c29 -13 30 -16 9 -46 -18 -26 -22 -26 -48 -7 -16
12 -18 19 -8 40 13 29 13 29 47 13z"/>
<path d="M1237 563 c-4 -3 -7 -46 -7 -94 0 -102 -3 -99 105 -99 63 0 76 3 85
19 14 27 13 154 -2 169 -13 13 -169 17 -181 5z m123 -93 c0 -28 -3 -30 -35
-30 -32 0 -35 2 -35 30 0 28 3 30 35 30 32 0 35 -2 35 -30z"/>
<path d="M1830 1775 c0 -14 -1 -28 -2 -32 -2 -4 11 -10 29 -14 28 -6 32 -4 37
23 8 39 1 48 -35 48 -24 0 -29 -4 -29 -25z"/>
</g>
</svg>
