<svg xmlns="http://www.w3.org/2000/svg" xmlns:xlink="http://www.w3.org/1999/xlink" width="250" zoomAndPan="magnify" viewBox="0 0 187.5 187.499992" height="250" preserveAspectRatio="xMidYMid meet" version="1.0"><defs><clipPath id="id1"><path d="M 57.46875 68 L 130.21875 68 L 130.21875 131.25 L 57.46875 131.25 Z M 57.46875 68 " clip-rule="nonzero"/></clipPath><clipPath id="id2"><path d="M 118 56.25 L 122 56.25 L 122 60 L 118 60 Z M 118 56.25 " clip-rule="nonzero"/></clipPath><clipPath id="id3"><path d="M 113 56.25 L 117 56.25 L 117 61 L 113 61 Z M 113 56.25 " clip-rule="nonzero"/></clipPath></defs><path fill="#5573ff" d="M 78.804688 70 L 108.882812 70 L 108.882812 80 L 78.804688 80 Z M 78.804688 70 " fill-opacity="1" fill-rule="nonzero"/><path fill="#fbf5fc" d="M 68.777344 80 L 118.910156 80 L 118.910156 120 L 68.777344 120 Z M 68.777344 80 " fill-opacity="1" fill-rule="nonzero"/><path fill="#f74f2e" d="M 58.753906 120 L 68.777344 120 L 68.777344 130 L 58.753906 130 Z M 58.753906 120 " fill-opacity="1" fill-rule="nonzero"/><path fill="#b300d1" d="M 68.777344 120 L 78.804688 120 L 78.804688 130 L 68.777344 130 Z M 68.777344 120 " fill-opacity="1" fill-rule="nonzero"/><path fill="#88b337" d="M 108.882812 120 L 118.910156 120 L 118.910156 130 L 108.882812 130 Z M 108.882812 120 " fill-opacity="1" fill-rule="nonzero"/><path fill="#88b337" d="M 88.832031 120 L 98.855469 120 L 98.855469 130 L 88.832031 130 Z M 88.832031 120 " fill-opacity="1" fill-rule="nonzero"/><path fill="#f74f2e" d="M 98.855469 120 L 108.882812 120 L 108.882812 130 L 98.855469 130 Z M 98.855469 120 " fill-opacity="1" fill-rule="nonzero"/><path fill="#fdb62f" d="M 78.804688 120 L 88.832031 120 L 88.832031 130 L 78.804688 130 Z M 78.804688 120 " fill-opacity="1" fill-rule="nonzero"/><path fill="#fdb62f" d="M 58.753906 90 L 68.777344 90 L 68.777344 100 L 58.753906 100 Z M 58.753906 90 " fill-opacity="1" fill-rule="nonzero"/><path fill="#f74f2e" d="M 58.753906 70 L 68.777344 70 L 68.777344 80 L 58.753906 80 Z M 58.753906 70 " fill-opacity="1" fill-rule="nonzero"/><path fill="#b300d1" d="M 58.753906 80 L 68.777344 80 L 68.777344 90 L 58.753906 90 Z M 58.753906 80 " fill-opacity="1" fill-rule="nonzero"/><path fill="#fdb62f" d="M 108.882812 70 L 118.910156 70 L 118.910156 80 L 108.882812 80 Z M 108.882812 70 " fill-opacity="1" fill-rule="nonzero"/><path fill="#88b337" d="M 68.777344 70 L 78.804688 70 L 78.804688 80 L 68.777344 80 Z M 68.777344 70 " fill-opacity="1" fill-rule="nonzero"/><path fill="#f74f2e" d="M 118.910156 120 L 128.933594 120 L 128.933594 130 L 118.910156 130 Z M 118.910156 120 " fill-opacity="1" fill-rule="nonzero"/><path fill="#5573ff" d="M 58.753906 110 L 68.777344 110 L 68.777344 120 L 58.753906 120 Z M 58.753906 110 " fill-opacity="1" fill-rule="nonzero"/><path fill="#88b337" d="M 58.753906 100 L 68.777344 100 L 68.777344 110 L 58.753906 110 Z M 58.753906 100 " fill-opacity="1" fill-rule="nonzero"/><path fill="#fdb62f" d="M 118.910156 110 L 128.933594 110 L 128.933594 120 L 118.910156 120 Z M 118.910156 110 " fill-opacity="1" fill-rule="nonzero"/><path fill="#f74f2e" d="M 118.910156 70 L 128.933594 70 L 128.933594 80 L 118.910156 80 Z M 118.910156 70 " fill-opacity="1" fill-rule="nonzero"/><path fill="#5573ff" d="M 118.910156 100 L 128.933594 100 L 128.933594 110 L 118.910156 110 Z M 118.910156 100 " fill-opacity="1" fill-rule="nonzero"/><path fill="#88b337" d="M 118.910156 80 L 128.933594 80 L 128.933594 90 L 118.910156 90 Z M 118.910156 80 " fill-opacity="1" fill-rule="nonzero"/><path fill="#fdb62f" d="M 118.910156 90 L 128.933594 90 L 128.933594 100 L 118.910156 100 Z M 118.910156 90 " fill-opacity="1" fill-rule="nonzero"/><path fill="#88b337" d="M 91.335938 108.75 L 93.84375 108.75 L 93.84375 98.75 L 76.296875 98.75 L 76.296875 102.5 L 91.335938 102.5 Z M 91.335938 108.75 " fill-opacity="1" fill-rule="nonzero"/><path fill="#f74f2e" d="M 96.246094 68.058594 C 97.300781 67.585938 98.015625 66.390625 97.605469 64.871094 C 97.558594 64.707031 97.476562 64.539062 97.367188 64.40625 C 95.871094 62.53125 93.417969 63.203125 92.828125 65.011719 C 92.601562 65.703125 92.691406 66.421875 93.023438 67.007812 C 93.285156 67.46875 93.160156 68.050781 92.804688 68.441406 L 88.230469 73.496094 C 87.621094 74.167969 87.90625 75.242188 88.769531 75.523438 L 94.632812 77.4375 C 95.496094 77.71875 96.363281 77.023438 96.269531 76.121094 L 95.570312 69.296875 C 95.515625 68.785156 95.773438 68.273438 96.246094 68.058594 Z M 96.246094 68.058594 " fill-opacity="1" fill-rule="nonzero"/><path fill="#5573ff" d="M 91.335938 108.75 L 91.335938 102.5 L 73.792969 102.5 L 73.792969 112.5 L 91.335938 112.5 Z M 91.335938 108.75 " fill-opacity="1" fill-rule="nonzero"/><path fill="#5573ff" d="M 96.351562 85 L 113.894531 85 L 113.894531 95 L 96.351562 95 Z M 96.351562 85 " fill-opacity="1" fill-rule="nonzero"/><path fill="#dad5db" d="M 103.871094 111.25 L 108.882812 111.25 L 108.882812 116.25 L 103.871094 116.25 Z M 103.871094 111.25 " fill-opacity="1" fill-rule="nonzero"/><path fill="#dad5db" d="M 102.984375 105.820312 L 105.339844 101.402344 L 109.765625 103.75 L 107.414062 108.164062 Z M 102.984375 105.820312 " fill-opacity="1" fill-rule="nonzero"/><g clip-path="url(#id1)"><path fill="#000000" d="M 58.753906 131.25 L 128.933594 131.25 C 129.625 131.25 130.1875 130.691406 130.1875 130 L 130.1875 70 C 130.1875 69.308594 129.625 68.75 128.933594 68.75 L 101.363281 68.75 L 101.363281 71.25 L 107.628906 71.25 L 107.628906 78.75 L 80.058594 78.75 L 80.058594 71.25 L 86.324219 71.25 L 86.324219 68.75 L 58.753906 68.75 C 58.0625 68.75 57.5 69.308594 57.5 70 L 57.5 130 C 57.5 130.691406 58.0625 131.25 58.753906 131.25 Z M 60.007812 121.25 L 67.527344 121.25 L 67.527344 128.75 L 60.007812 128.75 Z M 70.03125 121.25 L 77.550781 121.25 L 77.550781 128.75 L 70.03125 128.75 Z M 80.058594 121.25 L 87.578125 121.25 L 87.578125 128.75 L 80.058594 128.75 Z M 90.085938 121.25 L 97.601562 121.25 L 97.601562 128.75 L 90.085938 128.75 Z M 100.109375 121.25 L 107.628906 121.25 L 107.628906 128.75 L 100.109375 128.75 Z M 110.136719 121.25 L 117.65625 121.25 L 117.65625 128.75 L 110.136719 128.75 Z M 120.160156 111.25 L 127.679688 111.25 L 127.679688 118.75 L 120.160156 118.75 Z M 120.160156 108.75 L 120.160156 101.25 L 127.679688 101.25 L 127.679688 108.75 Z M 120.160156 98.75 L 120.160156 91.25 L 127.679688 91.25 L 127.679688 98.75 Z M 120.160156 88.75 L 120.160156 81.25 L 127.679688 81.25 L 127.679688 88.75 Z M 117.65625 118.75 L 70.03125 118.75 L 70.03125 81.25 L 117.65625 81.25 Z M 67.527344 88.75 L 60.007812 88.75 L 60.007812 81.25 L 67.527344 81.25 Z M 67.527344 91.25 L 67.527344 98.75 L 60.007812 98.75 L 60.007812 91.25 Z M 67.527344 101.25 L 67.527344 108.75 L 60.007812 108.75 L 60.007812 101.25 Z M 67.527344 111.25 L 67.527344 118.75 L 60.007812 118.75 L 60.007812 111.25 Z M 120.160156 128.75 L 120.160156 121.25 L 127.679688 121.25 L 127.679688 128.75 Z M 127.679688 78.75 L 120.160156 78.75 L 120.160156 71.25 L 127.679688 71.25 Z M 110.136719 71.25 L 117.65625 71.25 L 117.65625 78.75 L 110.136719 78.75 Z M 77.550781 78.75 L 70.03125 78.75 L 70.03125 71.25 L 77.550781 71.25 Z M 67.527344 71.25 L 67.527344 78.75 L 60.007812 78.75 L 60.007812 71.25 Z M 67.527344 71.25 " fill-opacity="1" fill-rule="nonzero"/></g><path fill="#000000" d="M 98.8125 64.546875 C 98.726562 64.214844 98.5625 63.898438 98.347656 63.628906 C 97.382812 62.414062 95.960938 61.847656 94.546875 62.097656 C 93.183594 62.339844 92.066406 63.308594 91.636719 64.621094 C 91.308594 65.613281 91.417969 66.707031 91.875 67.605469 L 87.296875 72.660156 C 86.726562 73.289062 86.515625 74.15625 86.734375 74.976562 C 86.953125 75.796875 87.566406 76.445312 88.378906 76.710938 L 94.238281 78.625 C 94.496094 78.707031 94.761719 78.75 95.023438 78.75 C 95.585938 78.75 96.140625 78.558594 96.59375 78.195312 C 97.253906 77.664062 97.601562 76.839844 97.511719 75.992188 L 96.761719 69.199219 C 98.5 68.414062 99.34375 66.5 98.8125 64.546875 Z M 95.726562 66.921875 C 94.777344 67.351562 94.210938 68.359375 94.320312 69.421875 L 95.019531 76.246094 L 89.15625 74.332031 L 93.734375 69.28125 C 94.476562 68.460938 94.628906 67.300781 94.117188 66.394531 C 93.941406 66.085938 93.90625 65.734375 94.019531 65.398438 C 94.160156 64.960938 94.535156 64.640625 94.988281 64.558594 C 95.0625 64.542969 95.136719 64.539062 95.210938 64.539062 C 95.636719 64.539062 96.050781 64.765625 96.394531 65.199219 C 96.648438 66.132812 96.214844 66.703125 95.726562 66.921875 Z M 95.726562 66.921875 " fill-opacity="1" fill-rule="nonzero"/><path fill="#000000" d="M 101.660156 60.835938 L 100.082031 58.894531 C 99.269531 59.550781 98.628906 60.410156 98.230469 61.371094 L 100.546875 62.324219 C 100.785156 61.746094 101.171875 61.230469 101.660156 60.835938 Z M 101.660156 60.835938 " fill-opacity="1" fill-rule="nonzero"/><path fill="#000000" d="M 107.667969 62.8125 L 110.097656 62.1875 C 109.835938 61.179688 109.320312 60.242188 108.601562 59.480469 L 106.773438 61.1875 C 107.203125 61.644531 107.511719 62.207031 107.667969 62.8125 Z M 107.667969 62.8125 " fill-opacity="1" fill-rule="nonzero"/><path fill="#000000" d="M 103.347656 60.0625 C 103.953125 59.953125 104.609375 59.992188 105.203125 60.1875 L 105.988281 57.816406 C 105.003906 57.492188 103.929688 57.417969 102.898438 57.601562 Z M 103.347656 60.0625 " fill-opacity="1" fill-rule="nonzero"/><path fill="#000000" d="M 125.175781 65 C 125.175781 65.433594 125.128906 65.871094 125.039062 66.296875 L 127.492188 66.808594 C 127.617188 66.214844 127.679688 65.609375 127.679688 65 C 127.679688 64.570312 127.648438 64.140625 127.589844 63.722656 L 125.109375 64.085938 C 125.152344 64.382812 125.175781 64.6875 125.175781 65 Z M 125.175781 65 " fill-opacity="1" fill-rule="nonzero"/><path fill="#000000" d="M 126.601562 60.792969 C 126.101562 59.882812 125.445312 59.074219 124.660156 58.390625 L 123.015625 60.277344 C 123.578125 60.765625 124.046875 61.347656 124.40625 61.996094 Z M 126.601562 60.792969 " fill-opacity="1" fill-rule="nonzero"/><g clip-path="url(#id2)"><path fill="#000000" d="M 122 56.808594 C 121.023438 56.445312 120 56.253906 118.953125 56.25 L 118.941406 58.75 C 119.691406 58.753906 120.421875 58.886719 121.117188 59.148438 Z M 122 56.808594 " fill-opacity="1" fill-rule="nonzero"/></g><g clip-path="url(#id3)"><path fill="#000000" d="M 114.851562 60.234375 C 115.421875 59.753906 116.0625 59.378906 116.761719 59.125 L 115.902344 56.777344 C 114.921875 57.132812 114.023438 57.65625 113.226562 58.332031 Z M 114.851562 60.234375 " fill-opacity="1" fill-rule="nonzero"/></g><path fill="#000000" d="M 73.792969 113.75 L 91.335938 113.75 C 92.027344 113.75 92.589844 113.191406 92.589844 112.5 L 92.589844 110 L 93.84375 110 C 94.535156 110 95.097656 109.441406 95.097656 108.75 L 95.097656 98.75 C 95.097656 98.058594 94.535156 97.5 93.84375 97.5 L 76.296875 97.5 C 75.605469 97.5 75.046875 98.058594 75.046875 98.75 L 75.046875 101.25 L 73.792969 101.25 C 73.101562 101.25 72.539062 101.808594 72.539062 102.5 L 72.539062 112.5 C 72.539062 113.191406 73.101562 113.75 73.792969 113.75 Z M 77.550781 100 L 92.589844 100 L 92.589844 102.5 C 92.589844 101.808594 92.027344 101.25 91.335938 101.25 L 77.550781 101.25 Z M 75.046875 103.75 L 90.085938 103.75 L 90.085938 111.25 L 75.046875 111.25 Z M 75.046875 103.75 " fill-opacity="1" fill-rule="nonzero"/><path fill="#000000" d="M 96.351562 96.25 L 113.894531 96.25 C 114.585938 96.25 115.148438 95.691406 115.148438 95 L 115.148438 85 C 115.148438 84.308594 114.585938 83.75 113.894531 83.75 L 96.351562 83.75 C 95.660156 83.75 95.097656 84.308594 95.097656 85 L 95.097656 95 C 95.097656 95.691406 95.660156 96.25 96.351562 96.25 Z M 97.601562 86.25 L 112.640625 86.25 L 112.640625 93.75 L 97.601562 93.75 Z M 97.601562 86.25 " fill-opacity="1" fill-rule="nonzero"/><path fill="#000000" d="M 108.882812 110 L 103.871094 110 C 103.179688 110 102.617188 110.558594 102.617188 111.25 L 102.617188 116.25 C 102.617188 116.941406 103.179688 117.5 103.871094 117.5 L 108.882812 117.5 C 109.574219 117.5 110.136719 116.941406 110.136719 116.25 L 110.136719 111.25 C 110.136719 110.558594 109.574219 110 108.882812 110 Z M 107.628906 115 L 105.121094 115 L 105.121094 112.5 L 107.628906 112.5 Z M 107.628906 115 " fill-opacity="1" fill-rule="nonzero"/><path fill="#000000" d="M 110.355469 102.644531 L 105.925781 100.300781 C 105.316406 99.976562 104.558594 100.207031 104.230469 100.820312 L 101.878906 105.234375 C 101.554688 105.84375 101.785156 106.601562 102.398438 106.925781 L 106.824219 109.269531 C 107.007812 109.367188 107.210938 109.417969 107.414062 109.417969 C 107.535156 109.417969 107.660156 109.398438 107.777344 109.363281 C 108.097656 109.265625 108.363281 109.046875 108.519531 108.753906 L 110.871094 104.335938 C 111.027344 104.046875 111.058594 103.703125 110.960938 103.386719 C 110.867188 103.066406 110.648438 102.800781 110.355469 102.644531 Z M 106.894531 106.476562 L 104.683594 105.304688 L 105.855469 103.097656 L 108.070312 104.269531 Z M 106.894531 106.476562 " fill-opacity="1" fill-rule="nonzero"/></svg>